<svg width="224" height="70" viewBox="0 0 224 70" fill="none" xmlns="http://www.w3.org/2000/svg">
    <path d="M44.0365 52.4425C44.0365 54.932 43.0444 57.3195 41.2786 59.0798C39.5128 60.8401 37.1178 61.829 34.6206 61.829V70C36.9304 69.9957 39.2167 69.5379 41.3491 68.6527C43.4814 67.7676 45.4179 66.4724 47.0482 64.8412C48.6784 63.2099 49.9703 61.2746 50.8502 59.1456C51.7302 57.0166 52.1808 54.7357 52.1765 52.4331V21.9879C49.3101 23.229 46.5753 24.7525 44.0129 26.5357L44.0365 52.4425ZM171.824 17.5106C169.518 17.5106 167.236 17.9632 165.106 18.8428C162.976 19.7223 161.04 21.0114 159.41 22.6365C157.78 24.2617 156.487 26.191 155.604 28.3143C154.722 30.4377 154.268 32.7135 154.268 35.0117C154.268 37.31 154.722 39.5858 155.604 41.7091C156.487 43.8325 157.78 45.7618 159.41 47.3869C161.04 49.0121 162.976 50.3012 165.106 51.1807C167.236 52.0602 169.518 52.5129 171.824 52.5129H175.496V44.3748H171.824C169.96 44.3804 168.137 43.8346 166.585 42.8066C165.033 41.7786 163.822 40.3146 163.105 38.5999C162.388 36.8852 162.197 34.997 162.557 33.1744C162.917 31.3517 163.812 29.6766 165.128 28.361C166.443 27.0455 168.121 26.1487 169.948 25.7842C171.776 25.4197 173.67 25.604 175.392 26.3136C177.115 27.0232 178.587 28.2263 179.623 29.7705C180.659 31.3147 181.212 33.1306 181.212 34.9883V52.4894H189.38V35.0117C189.379 30.3705 187.529 25.9197 184.236 22.6379C180.944 19.3561 176.48 17.5118 171.824 17.5106ZM116.299 17.5106C112.963 17.505 109.695 18.4529 106.883 20.242V0H98.7427V52.5129H106.906V35.0117C106.906 32.5285 107.896 30.147 109.657 28.3911C111.419 26.6351 113.808 25.6487 116.299 25.6487C118.79 25.6487 121.179 26.6351 122.94 28.3911C124.701 30.147 125.691 32.5285 125.691 35.0117V52.5129H133.854V35.0117C133.853 30.3705 132.003 25.9197 128.711 22.6379C125.419 19.3561 120.954 17.5118 116.299 17.5106ZM139.979 52.5035H148.143V26.5451C145.582 24.757 142.847 23.2303 139.979 21.9879V52.5035ZM75.0618 17.5106C70.4057 17.5106 65.9402 19.3544 62.6479 22.6365C59.3555 25.9186 57.5059 30.3701 57.5059 35.0117C57.5059 39.6533 59.3555 44.1048 62.6479 47.3869C65.9402 50.669 70.4057 52.5129 75.0618 52.5129H78.7387V44.3748H75.0618C73.2051 44.3748 71.3902 43.8262 69.8461 42.7984C68.3021 41.7707 67.0982 40.3097 66.3867 38.6002C65.6751 36.8907 65.4877 35.0093 65.8482 33.1937C66.2087 31.3781 67.1009 29.7097 68.4121 28.3993C69.7233 27.089 71.3946 26.1954 73.215 25.8315C75.0354 25.4675 76.9231 25.6496 78.6398 26.3547C80.3564 27.0598 81.8249 28.2562 82.8598 29.7928C83.8946 31.3295 84.4494 33.1374 84.4541 34.9883V52.4894H92.6177V35.0117C92.6177 30.3701 90.768 25.9186 87.4757 22.6365C84.1833 19.3544 79.7179 17.5106 75.0618 17.5106Z" fill="#FDFDFD"/>
    <path d="M139.979 11.3577V16.5907C142.813 17.7279 145.544 19.1033 148.143 20.702V11.3577H139.979Z" fill="#20A0DB"/>
    <path d="M52.2005 11.3577V16.5907C49.3662 17.7289 46.6337 19.1042 44.0322 20.702V11.3577H52.2005Z" fill="#20A0DB"/>
    <path d="M144.998 67.1137C145.054 67.1134 145.11 67.125 145.161 67.1476C145.212 67.1703 145.258 67.2035 145.295 67.2451L146.124 68.1462C145.671 68.708 145.09 69.1538 144.429 69.4462C143.667 69.7735 142.843 69.9335 142.014 69.9155C141.236 69.927 140.463 69.78 139.744 69.4837C139.093 69.213 138.507 68.8066 138.026 68.2917C137.539 67.7634 137.167 67.1401 136.934 66.4613C136.673 65.7163 136.544 64.9318 136.552 64.1428C136.541 63.3408 136.685 62.5441 136.976 61.7962C137.243 61.1117 137.65 60.4902 138.171 59.9714C138.692 59.4526 139.316 59.0479 140.003 58.7831C140.754 58.4936 141.553 58.3487 142.357 58.356C143.111 58.3411 143.861 58.4784 144.561 58.7597C145.163 59.0099 145.712 59.3713 146.18 59.825L145.474 60.8012C145.432 60.8658 145.377 60.9216 145.314 60.9655C145.232 61.0162 145.137 61.0408 145.041 61.0359C144.906 61.0298 144.777 60.9804 144.674 60.8951C144.523 60.7841 144.366 60.6823 144.203 60.59C143.969 60.4641 143.723 60.3619 143.468 60.285C142.61 60.0571 141.702 60.1064 140.874 60.4258C140.438 60.6016 140.046 60.8708 139.725 61.2142C139.391 61.5779 139.135 62.0059 138.972 62.472C138.786 63.0043 138.695 63.5651 138.704 64.1287C138.694 64.7048 138.785 65.2781 138.972 65.823C139.132 66.285 139.381 66.7109 139.707 67.0761C140.008 67.4106 140.379 67.675 140.794 67.8505C141.22 68.0319 141.678 68.1245 142.141 68.1227C142.402 68.1227 142.663 68.107 142.922 68.0758C143.14 68.0456 143.354 67.9953 143.562 67.9256C143.757 67.8601 143.944 67.7719 144.118 67.6628C144.303 67.5465 144.478 67.4146 144.641 67.2685C144.69 67.2237 144.746 67.1858 144.805 67.1559C144.865 67.1263 144.932 67.1118 144.998 67.1137Z" fill="#20A0DB"/>
    <path d="M149.824 68.0523H154.358V69.7841H147.715V58.5015H149.824V68.0523Z" fill="#20A0DB"/>
    <path d="M166.057 64.1476C166.066 64.9333 165.925 65.7136 165.643 66.4472C165.381 67.1295 164.984 67.7521 164.475 68.2776C163.961 68.8013 163.344 69.2136 162.663 69.4885C161.914 69.7855 161.114 69.9322 160.309 69.9203C159.503 69.9299 158.704 69.7832 157.955 69.4885C157.272 69.2136 156.653 68.8015 156.137 68.2776C155.626 67.7545 155.228 67.1313 154.97 66.4472C154.411 64.9647 154.411 63.3304 154.97 61.8479C155.23 61.165 155.628 60.5422 156.137 60.0175C156.652 59.4936 157.271 59.0827 157.955 58.8113C158.703 58.5127 159.503 58.3644 160.309 58.3748C161.115 58.3615 161.916 58.5116 162.663 58.816C163.344 59.0892 163.961 59.4999 164.475 60.0222C164.983 60.5468 165.38 61.1676 165.643 61.8479C165.925 62.5816 166.066 63.3618 166.057 64.1476ZM163.896 64.1476C163.904 63.5824 163.819 63.0198 163.647 62.4815C163.5 62.02 163.259 61.5935 162.94 61.2283C162.63 60.8845 162.245 60.615 161.815 60.4399C160.853 60.0708 159.788 60.0708 158.826 60.4399C158.395 60.615 158.008 60.8845 157.696 61.2283C157.373 61.5927 157.127 62.0192 156.975 62.4815C156.643 63.5674 156.643 64.7277 156.975 65.8137C157.127 66.276 157.373 66.7024 157.696 67.0668C158.01 67.4079 158.396 67.6755 158.826 67.8505C159.789 68.2126 160.852 68.2126 161.815 67.8505C162.244 67.6753 162.628 67.4077 162.94 67.0668C163.259 66.7016 163.5 66.2751 163.647 65.8137C163.82 65.2754 163.904 64.7127 163.896 64.1476Z" fill="#20A0DB"/>
    <path d="M172.276 68.0993C172.652 68.1061 173.025 68.0375 173.373 67.8974C173.684 67.7687 173.962 67.5732 174.188 67.3249C174.417 67.0674 174.59 66.7653 174.696 66.4378C174.817 66.0587 174.876 65.6624 174.87 65.2645V58.5015H176.979V65.2645C176.988 65.9049 176.877 66.5413 176.654 67.1418C176.45 67.6985 176.129 68.2049 175.711 68.6268C175.294 69.0487 174.79 69.3761 174.235 69.587C172.97 70.0502 171.582 70.0502 170.318 69.587C169.763 69.3721 169.261 69.0426 168.844 68.6202C168.431 68.1978 168.11 67.6943 167.902 67.1418C167.679 66.5413 167.569 65.9049 167.578 65.2645V58.5015H169.682V65.2364C169.677 65.6346 169.737 66.0309 169.861 66.4097C169.967 66.7392 170.138 67.0441 170.365 67.3061C170.589 67.5538 170.866 67.7493 171.174 67.8787C171.523 68.0264 171.898 68.1014 172.276 68.0993Z" fill="#20A0DB"/>
    <path d="M189.187 64.1475C189.196 64.9276 189.053 65.702 188.768 66.4284C188.508 67.1013 188.109 67.712 187.596 68.2207C187.083 68.7293 186.469 69.1245 185.793 69.3805C185.041 69.6653 184.242 69.8055 183.439 69.7935H179.117V58.5015H183.439C184.243 58.491 185.041 58.6328 185.793 58.9192C186.47 59.1781 187.085 59.5744 187.6 60.0831C188.11 60.5897 188.508 61.1973 188.768 61.8666C189.053 62.5932 189.195 63.3675 189.187 64.1475ZM187.031 64.1475C187.038 63.5824 186.954 63.0197 186.781 62.4814C186.632 62.0203 186.388 61.5952 186.066 61.233C185.756 60.8882 185.371 60.6186 184.94 60.4445C184.465 60.2578 183.958 60.1653 183.448 60.1723H181.249V68.1227H183.448C183.959 68.132 184.466 68.0395 184.94 67.8505C185.365 67.6747 185.744 67.407 186.051 67.0667C186.373 66.7021 186.617 66.2756 186.767 65.8136C186.945 65.2762 187.034 64.7135 187.031 64.1475Z" fill="#20A0DB"/>
</svg>
